<?xml version="1.0" encoding="utf-8"?>
<!-- Generator: Adobe Illustrator 24.0.1, SVG Export Plug-In . SVG Version: 6.00 Build 0)  -->
<svg version="1.1" xmlns="http://www.w3.org/2000/svg" xmlns:xlink="http://www.w3.org/1999/xlink" x="0px" y="0px"
	 viewBox="0 0 595.3 601.9" style="enable-background:new 0 0 595.3 601.9;" xml:space="preserve">
<g id="Layer_1">
</g>
<g id="Layer_2_copy">
	<g>
		<path d="M370.9,172.3L370.9,172.3c-16.6-16.6-43.5-16.6-60.1,0L160.7,322.5c-9.8,9.8-9.8,25.6,0,35.3l0,0c9.8,9.8,25.6,9.8,35.3,0
			C239.9,314.1,351.2,202.7,371,183C373.9,180,373.9,175.3,370.9,172.3z"/>
		<path d="M294.8,168.5L294.8,168.5c-16.6-16.6-43.5-16.6-60.1,0l-72.4,72.4c-9.8,9.8-9.8,25.6,0,35.3l0,0c9.8,9.8,25.6,9.8,35.3,0
			c29.2-29.2,85.6-85.6,97.1-97.1C297.8,176.2,297.8,171.4,294.8,168.5z"/>
		<path d="M415.3,317.6h-95.2c-1.4,0-2.1-1.7-1.1-2.7l2.5-2.5c1-1,2.3-1.5,3.6-1.5h96.2c14,0,25.8-11.5,25.6-25.5
			c-0.3-13.6-11.3-24.5-25-24.5H373c19.7-19.7,34.5-34.6,38.5-38.5c2.9-2.9,2.9-7.7,0-10.7c-16.6-16.6-43.5-16.6-60.1,0L191.2,372.2
			c-9.8,9.8-9.7,25.6,0,35.3v0c9.8,9.8,25.6,9.8,35.3,0c4-4,18.8-18.8,38.4-38.4c1-1,2.3-1.5,3.6-1.5h3.4c1.4,0,2.1,1.7,1.1,2.7
			l-48.8,48.7c-2.9,2.9-2.9,7.6,0,10.4c16.6,16.6,43.6,16.6,60.3,0l60.4-60.4c1-1,2.3-1.5,3.6-1.5l3.4,0c1.4,0,2.1,1.7,1.1,2.7
			l-53.1,53c-2.9,2.9-2.9,7.6,0,10.4h0c16.6,16.6,43.6,16.6,60.3,0l73.4-73.4c7.8-7.8,9.6-19.8,4.3-29.7
			C433.4,322.5,424.6,317.6,415.3,317.6z M409.1,276.9c6.3-1,11.7,4.3,10.6,10.6c-0.6,3.8-3.7,6.9-7.5,7.5
			c-6.3,1-11.7-4.3-10.6-10.6C402.2,280.6,405.3,277.5,409.1,276.9z"/>
		<circle cx="460.5" cy="285.9" r="9.2"/>
	</g>
</g>
</svg>
